o chassis_frame
v 0 0 0
v 4 0 0
v 4 0.3 0
v 0 0.3 0
v 0 0 2
v 4 0 2
v 4 0.3 2
v 0 0.3 2
f 1 2 3 4
f 5 6 7 8
f 1 5 8 4
f 2 6 7 3
f 4 3 7 8
f 1 2 6 5
o engine_block
v 1 1 0.7
v 3 1 0.7
v 3 1.6 0.7
v 1 1.6 0.7
v 1 1 1.5
v 3 1 1.5
v 3 1.6 1.5
v 1 1.6 1.5
f 9 10 11 12
f 13 14 15 16
f 9 13 16 12
f 10 14 15 11
f 12 11 15 16
f 9 10 14 13
o intake
v 1.2 1.8 0.8
v 2.8 1.8 0.8
v 2.8 2.0 0.8
v 1.2 2.0 0.8
v 1.2 1.8 1.2000000000000002
v 2.8 1.8 1.2000000000000002
v 2.8 2.0 1.2000000000000002
v 1.2 2.0 1.2000000000000002
f 17 18 19 20
f 21 22 23 24
f 17 21 24 20
f 18 22 23 19
f 20 19 23 24
f 17 18 22 21
o radiator
v 1.5 2.2 0.7
v 2.5 2.2 0.7
v 2.5 2.4000000000000004 0.7
v 1.5 2.4000000000000004 0.7
v 1.5 2.2 1.5
v 2.5 2.2 1.5
v 2.5 2.4000000000000004 1.5
v 1.5 2.4000000000000004 1.5
f 25 26 27 28
f 29 30 31 32
f 25 29 32 28
f 26 30 31 27
f 28 27 31 32
f 25 26 30 29
o gearbox
v 1.5 -1 0.8
v 2.5 -1 0.8
v 2.5 -0.5 0.8
v 1.5 -0.5 0.8
v 1.5 -1 1.4
v 2.5 -1 1.4
v 2.5 -0.5 1.4
v 1.5 -0.5 1.4
f 33 34 35 36
f 37 38 39 40
f 33 37 40 36
f 34 38 39 35
f 36 35 39 40
f 33 34 38 37
o driveshaft
v 1.9 -2 0.9
v 2.1 -2 0.9
v 2.1 -1 0.9
v 1.9 -1 0.9
v 1.9 -2 1.1
v 2.1 -2 1.1
v 2.1 -1 1.1
v 1.9 -1 1.1
f 41 42 43 44
f 45 46 47 48
f 41 45 48 44
f 42 46 47 43
f 44 43 47 48
f 41 42 46 45
o front_left_suspension
v -1 0.2 0.3
v -0.4 0.2 0.3
v -0.4 0.8 0.3
v -1 0.8 0.3
v -1 0.2 0.8999999999999999
v -0.4 0.2 0.8999999999999999
v -0.4 0.8 0.8999999999999999
v -1 0.8 0.8999999999999999
f 49 50 51 52
f 53 54 55 56
f 49 53 56 52
f 50 54 55 51
f 52 51 55 56
f 49 50 54 53
o front_right_suspension
v 4.5 0.2 0.3
v 5.1 0.2 0.3
v 5.1 0.8 0.3
v 4.5 0.8 0.3
v 4.5 0.2 0.8999999999999999
v 5.1 0.2 0.8999999999999999
v 5.1 0.8 0.8999999999999999
v 4.5 0.8 0.8999999999999999
f 57 58 59 60
f 61 62 63 64
f 57 61 64 60
f 58 62 63 59
f 60 59 63 64
f 57 58 62 61
o rear_left_suspension
v -1 0.2 1.5
v -0.4 0.2 1.5
v -0.4 0.8 1.5
v -1 0.8 1.5
v -1 0.2 2.1
v -0.4 0.2 2.1
v -0.4 0.8 2.1
v -1 0.8 2.1
f 65 66 67 68
f 69 70 71 72
f 65 69 72 68
f 66 70 71 67
f 68 67 71 72
f 65 66 70 69
o rear_right_suspension
v 4.5 0.2 1.5
v 5.1 0.2 1.5
v 5.1 0.8 1.5
v 4.5 0.8 1.5
v 4.5 0.2 2.1
v 5.1 0.2 2.1
v 5.1 0.8 2.1
v 4.5 0.8 2.1
f 73 74 75 76
f 77 78 79 80
f 73 77 80 76
f 74 78 79 75
f 76 75 79 80
f 73 74 78 77
o hood
v 0 3 0
v 4 3 0
v 4 3.2 0
v 0 3.2 0
v 0 3 2
v 4 3 2
v 4 3.2 2
v 0 3.2 2
f 81 82 83 84
f 85 86 87 88
f 81 85 88 84
f 82 86 87 83
f 84 83 87 88
f 81 82 86 85
o roof
v 0 4 0.5
v 4 4 0.5
v 4 4.2 0.5
v 0 4.2 0.5
v 0 4 1.5
v 4 4 1.5
v 4 4.2 1.5
v 0 4.2 1.5
f 89 90 91 92
f 93 94 95 96
f 89 93 96 92
f 90 94 95 91
f 92 91 95 96
f 89 90 94 93
o rear_panel
v 0 -2 0
v 4 -2 0
v 4 -1.8 0
v 0 -1.8 0
v 0 -2 2
v 4 -2 2
v 4 -1.8 2
v 0 -1.8 2
f 97 98 99 100
f 101 102 103 104
f 97 101 104 100
f 98 102 103 99
f 100 99 103 104
f 97 98 102 101